<svg preserveAspectRatio="none" width="100%" height="100%" overflow="visible" style="display: block;" viewBox="0 0 15.75 18" fill="none" xmlns="http://www.w3.org/2000/svg">
<g id="arrow-right" clip-path="url(#clip0_3_202)">
<path id="Vector" d="M6.69734 2.35183L7.47781 1.57136C7.80828 1.24089 8.34266 1.24089 8.66961 1.57136L15.504 8.40222C15.8345 8.73269 15.8345 9.26706 15.504 9.59401L8.66961 16.4284C8.33914 16.7589 7.80476 16.7589 7.47781 16.4284L6.69734 15.6479C6.36336 15.3139 6.37039 14.769 6.7114 14.4421L10.9477 10.4061H0.843826C0.376248 10.4061 7.62939e-05 10.03 7.62939e-05 9.56237V8.43737C7.62939e-05 7.96979 0.376248 7.59362 0.843826 7.59362H10.9477L6.7114 3.55768C6.36687 3.23073 6.35984 2.68581 6.69734 2.35183Z" fill="var(--fill-0, #ABE4F5)"/>
</g>
<defs>
<clipPath id="clip0_3_202">
<rect width="15.75" height="18" fill="white"/>
</clipPath>
</defs>
</svg>
