<svg preserveAspectRatio="none" width="100%" height="100%" overflow="visible" style="display: block;" viewBox="0 0 27 27" fill="none" xmlns="http://www.w3.org/2000/svg">
<g id="briefcase" clip-path="url(#clip0_3_217)">
<path id="Vector" d="M16.8785 17.7187C16.8785 18.1849 16.5009 18.5625 16.0347 18.5625H10.9722C10.5061 18.5625 10.1285 18.1849 10.1285 17.7187V15.1875H0.003479V22.7812C0.003479 24.1312 1.18473 25.3125 2.53473 25.3125H24.4722C25.8222 25.3125 27.0035 24.1312 27.0035 22.7812V15.1875H16.8785V17.7187ZM24.4722 6.74996H20.2535V4.21871C20.2535 2.86871 19.0722 1.68746 17.7222 1.68746H9.28473C7.93473 1.68746 6.75348 2.86871 6.75348 4.21871V6.74996H2.53473C1.18473 6.74996 0.003479 7.93121 0.003479 9.28121V13.5H27.0035V9.28121C27.0035 7.93121 25.8222 6.74996 24.4722 6.74996ZM16.8785 6.74996H10.1285V5.06246H16.8785V6.74996Z" fill="var(--fill-0, black)"/>
</g>
<defs>
<clipPath id="clip0_3_217">
<rect width="27" height="27" fill="white"/>
</clipPath>
</defs>
</svg>
