<svg preserveAspectRatio="none" width="100%" height="100%" overflow="visible" style="display: block;" viewBox="0 0 18 18" fill="none" xmlns="http://www.w3.org/2000/svg">
<g id="bxs-copy-alt" clip-path="url(#clip0_3_220)">
<g id="Vector">
<path d="M1.8034 1.00006H5.4034C6.39734 1.00006 7.2034 1.80612 7.2034 2.80006V6.40006C7.2034 7.394 6.39734 8.20006 5.4034 8.20006H1.8034C0.809465 8.20006 0.00340271 7.394 0.00340271 6.40006V2.80006C0.00340271 1.80612 0.809465 1.00006 1.8034 1.00006Z" fill="var(--fill-0, black)"/>
<path d="M1.8034 10.0001H5.4034C6.39734 10.0001 7.2034 10.8061 7.2034 11.8001V15.4001C7.2034 16.394 6.39734 17.2001 5.4034 17.2001H1.8034C0.809465 17.2001 0.00340271 16.394 0.00340271 15.4001V11.8001C0.00340271 10.8061 0.809465 10.0001 1.8034 10.0001Z" fill="var(--fill-0, black)"/>
<path d="M12.6034 1.00006H16.2034C17.1973 1.00006 18.0034 1.80612 18.0034 2.80006V6.40006C18.0034 7.394 17.1973 8.20006 16.2034 8.20006H12.6034C11.6095 8.20006 10.8034 7.394 10.8034 6.40006V2.80006C10.8034 1.80612 11.6095 1.00006 12.6034 1.00006Z" fill="var(--fill-0, black)"/>
<path d="M12.6034 10.0001H16.2034C17.1973 10.0001 18.0034 10.8061 18.0034 11.8001V15.4001C18.0034 16.394 17.1973 17.2001 16.2034 17.2001H12.6034C11.6095 17.2001 10.8034 16.394 10.8034 15.4001V11.8001C10.8034 10.8061 11.6095 10.0001 12.6034 10.0001Z" fill="var(--fill-0, black)"/>
</g>
</g>
<defs>
<clipPath id="clip0_3_220">
<rect width="18" height="18" fill="white"/>
</clipPath>
</defs>
</svg>
