<svg preserveAspectRatio="none" width="100%" height="100%" overflow="visible" style="display: block;" viewBox="0 0 23.625 27" fill="none" xmlns="http://www.w3.org/2000/svg">
<g id="calendar-alt" clip-path="url(#clip0_3_228)">
<path id="Vector" d="M0.000114441 24.469C0.000114441 25.8664 1.1339 27.0002 2.53136 27.0002H21.0939C22.4913 27.0002 23.6251 25.8664 23.6251 24.469V10.1252H0.000114441V24.469ZM16.8751 14.133C16.8751 13.785 17.1599 13.5002 17.5079 13.5002H19.6173C19.9653 13.5002 20.2501 13.785 20.2501 14.133V16.2424C20.2501 16.5905 19.9653 16.8752 19.6173 16.8752H17.5079C17.1599 16.8752 16.8751 16.5905 16.8751 16.2424V14.133ZM16.8751 20.883C16.8751 20.535 17.1599 20.2502 17.5079 20.2502H19.6173C19.9653 20.2502 20.2501 20.535 20.2501 20.883V22.9924C20.2501 23.3405 19.9653 23.6252 19.6173 23.6252H17.5079C17.1599 23.6252 16.8751 23.3405 16.8751 22.9924V20.883ZM10.1251 14.133C10.1251 13.785 10.4099 13.5002 10.7579 13.5002H12.8673C13.2153 13.5002 13.5001 13.785 13.5001 14.133V16.2424C13.5001 16.5905 13.2153 16.8752 12.8673 16.8752H10.7579C10.4099 16.8752 10.1251 16.5905 10.1251 16.2424V14.133ZM10.1251 20.883C10.1251 20.535 10.4099 20.2502 10.7579 20.2502H12.8673C13.2153 20.2502 13.5001 20.535 13.5001 20.883V22.9924C13.5001 23.3405 13.2153 23.6252 12.8673 23.6252H10.7579C10.4099 23.6252 10.1251 23.3405 10.1251 22.9924V20.883ZM3.37511 14.133C3.37511 13.785 3.65988 13.5002 4.00793 13.5002H6.1173C6.46535 13.5002 6.75011 13.785 6.75011 14.133V16.2424C6.75011 16.5905 6.46535 16.8752 6.1173 16.8752H4.00793C3.65988 16.8752 3.37511 16.5905 3.37511 16.2424V14.133ZM3.37511 20.883C3.37511 20.535 3.65988 20.2502 4.00793 20.2502H6.1173C6.46535 20.2502 6.75011 20.535 6.75011 20.883V22.9924C6.75011 23.3405 6.46535 23.6252 6.1173 23.6252H4.00793C3.65988 23.6252 3.37511 23.3405 3.37511 22.9924V20.883ZM21.0939 3.37522H18.5626V0.843972C18.5626 0.37991 18.1829 0.000222239 17.7189 0.000222239H16.0314C15.5673 0.000222239 15.1876 0.37991 15.1876 0.843972V3.37522H8.43761V0.843972C8.43761 0.37991 8.05793 0.000222239 7.59386 0.000222239H5.90636C5.4423 0.000222239 5.06261 0.37991 5.06261 0.843972V3.37522H2.53136C1.1339 3.37522 0.000114441 4.50901 0.000114441 5.90647V8.43772H23.6251V5.90647C23.6251 4.50901 22.4913 3.37522 21.0939 3.37522Z" fill="var(--fill-0, black)"/>
</g>
<defs>
<clipPath id="clip0_3_228">
<rect width="23.625" height="27" fill="white"/>
</clipPath>
</defs>
</svg>
