<svg preserveAspectRatio="none" width="100%" height="100%" overflow="visible" style="display: block;" viewBox="0 0 13.5 18" fill="none" xmlns="http://www.w3.org/2000/svg">
<g id="file-download" clip-path="url(#clip0_3_205)">
<path id="Vector" d="M7.87283 4.42856V-0.352687H0.841583C0.374005 -0.352687 -0.00216675 0.0234847 -0.00216675 0.491063V16.8036C-0.00216675 17.2711 0.374005 17.6473 0.841583 17.6473H12.6541C13.1217 17.6473 13.4978 17.2711 13.4978 16.8036V5.27231H8.71658C8.25252 5.27231 7.87283 4.89263 7.87283 4.42856ZM10.5605 11.8592L7.17076 15.2236C6.93697 15.456 6.5594 15.456 6.32561 15.2236L2.93584 11.8592C2.57901 11.5052 2.82932 10.8973 3.33135 10.8973H5.62283V8.08481C5.62283 7.77403 5.87455 7.52231 6.18533 7.52231H7.31033C7.62111 7.52231 7.87283 7.77403 7.87283 8.08481V10.8973H10.1643C10.6663 10.8973 10.9167 11.5052 10.5605 11.8592ZM13.2517 3.33872L9.80994 -0.106593C9.65174 -0.264797 9.43729 -0.352687 9.21229 -0.352687H8.99783V4.14731H13.4978V3.93286C13.4978 3.71138 13.4099 3.49692 13.2517 3.33872Z" fill="var(--fill-0, black)"/>
</g>
<defs>
<clipPath id="clip0_3_205">
<rect width="13.5" height="18" fill="white"/>
</clipPath>
</defs>
</svg>
