<svg preserveAspectRatio="none" width="100%" height="100%" overflow="visible" style="display: block;" viewBox="0 0 22 22" fill="none" xmlns="http://www.w3.org/2000/svg">
<g id="SVG">
<path id="Vector" d="M9.97674 19.3238C4.63745 19.3238 0.308289 14.9946 0.308289 9.66846C0.308289 4.34228 4.63745 2.13981e-07 9.97674 2.13981e-07C15.316 2.13981e-07 19.6452 4.32916 19.6452 9.66846C19.6452 15.0078 15.316 19.3369 9.97674 19.3369V19.3238ZM9.97674 1.70543C5.58199 1.70543 2.01372 5.2737 2.01372 9.66846C2.01372 14.0632 5.58199 17.6315 9.97674 17.6315C14.3715 17.6315 17.9267 14.0632 17.9267 9.66846C17.9267 5.2737 14.3584 1.70543 9.97674 1.70543Z" fill="var(--fill-0, #000709)"/>
<path id="Vector_2" d="M20.839 22C20.616 22 20.4061 21.9213 20.2355 21.7507L17.1395 18.6547C16.8116 18.3268 16.8116 17.7758 17.1395 17.4478C17.4675 17.1199 18.0185 17.1199 18.3465 17.4478L21.4425 20.5438C21.7704 20.8718 21.7704 21.4228 21.4425 21.7507C21.2719 21.9213 21.062 22 20.839 22Z" fill="var(--fill-0, #000709)"/>
</g>
</svg>
