<svg preserveAspectRatio="none" width="100%" height="100%" overflow="visible" style="display: block;" viewBox="0 0 45 45" fill="none" xmlns="http://www.w3.org/2000/svg">
<g id="Telegram_2019_Logo 1" clip-path="url(#clip0_3_172)">
<path id="Vector" d="M22.5086 45.0189C34.9402 45.0189 45.018 34.9412 45.018 22.5096C45.018 10.078 34.9402 0.000198364 22.5086 0.000198364C10.077 0.000198364 -0.000778198 10.078 -0.000778198 22.5096C-0.000778198 34.9412 10.077 45.0189 22.5086 45.0189Z" fill="var(--fill-0, white)"/>
<path id="Vector_2" fill-rule="evenodd" clip-rule="evenodd" d="M10.1763 22.266C16.736 19.4171 21.103 17.5242 23.2958 16.6058C29.537 14.0007 30.8489 13.5508 31.6923 13.5321C31.8797 13.5321 32.2921 13.5696 32.5732 13.7945C32.7981 13.9819 32.8543 14.2256 32.8918 14.413C32.9293 14.6004 32.9668 14.994 32.9293 15.2939C32.5919 18.8549 31.13 27.495 30.3804 31.4684C30.0617 33.1552 29.4432 33.7174 28.8435 33.7737C27.5315 33.8861 26.5382 32.9115 25.2825 32.0869C23.2958 30.7937 22.19 29.9877 20.2596 28.7133C18.0293 27.2514 19.4724 26.4455 20.7469 25.1335C21.0842 24.7962 26.8381 19.5483 26.9505 19.0798C26.9693 19.0236 26.9693 18.7987 26.8381 18.6862C26.7069 18.5737 26.5195 18.6112 26.3695 18.6487C26.1634 18.6862 23.0147 20.7853 16.886 24.9273C15.9864 25.5458 15.1804 25.8457 14.4495 25.827C13.6436 25.8082 12.1067 25.3772 10.9447 25.0023C9.53904 24.5525 8.41451 24.3089 8.50822 23.5217C8.56445 23.1094 9.12671 22.697 10.1763 22.266Z" fill="var(--fill-0, #1A1F29)"/>
</g>
<defs>
<clipPath id="clip0_3_172">
<rect width="45" height="45" fill="white"/>
</clipPath>
</defs>
</svg>
